<svg width="10" height="10" viewBox="0 0 10 10" fill="none" xmlns="http://www.w3.org/2000/svg">
<g clip-path="url(#clip0)">
<path d="M0.356256 5.35587C0.159398 5.35587 0.00292969 5.19431 0.00292969 4.99746C0.00292969 4.8006 0.159398 4.64413 0.356256 4.64413H4.64165V0.358415C4.64197 0.161557 4.80353 0 5.00039 0C5.19724 0 5.35371 0.161557 5.35371 0.358415V4.64413H9.63911C9.83597 4.64413 9.99752 4.8006 9.99752 4.99746C9.99752 5.19431 9.83597 5.35587 9.63911 5.35587H5.35371V9.64159C5.35371 9.83844 5.19724 10 5.00039 10C4.80353 10 4.64197 9.83844 4.64197 9.64159V5.35587H0.356256Z" fill="#1E201D" stroke="black" stroke-width="0.4"/>
</g>
<defs>
<clipPath id="clip0">
<rect width="10" height="10" fill="white"/>
</clipPath>
</defs>
</svg>
