<svg width="15" height="15" viewBox="0 0 15 15" fill="none" xmlns="http://www.w3.org/2000/svg">
<path d="M0.0158228 11.25L0 14.3354C0 14.5095 0.0632912 14.6835 0.189873 14.8101C0.316456 14.9367 0.474684 15 0.648734 15L3.71835 14.9842C3.89241 14.9842 4.05063 14.9209 4.17722 14.7943L14.7785 4.19304C15.0316 3.93987 15.0316 3.52848 14.7785 3.25949L11.7405 0.189873C11.4873 -0.0632911 11.0759 -0.0632911 10.807 0.189873L8.68671 2.32595L0.205696 10.7911C0.0949367 10.9177 0.0158228 11.076 0.0158228 11.25V11.25ZM11.2816 1.58228L13.4177 3.71835L12.2152 4.92089L10.0791 2.78481L11.2816 1.58228ZM1.32911 11.5348L9.14557 3.71835L11.2816 5.85443L3.46519 13.6551L1.31329 13.6709L1.32911 11.5348V11.5348Z" fill="black"/>
</svg>
