<svg width="12" height="12" viewBox="0 0 12 12" fill="none" xmlns="http://www.w3.org/2000/svg">
<path d="M5.90869 4.09951L7.62648 5.8173L7.63466 5.72732C7.63466 4.82479 6.9012 4.09133 5.99867 4.09133L5.90869 4.09951Z" fill="black"/>
<path d="M5.99879 3.00069C7.50391 3.00069 8.72545 4.22224 8.72545 5.72735C8.72545 6.07909 8.65457 6.41447 8.53187 6.72257L10.127 8.31766C10.9504 7.63055 11.5994 6.74167 12.0002 5.72735C11.054 3.33336 8.72819 1.63737 5.99882 1.63737C5.23535 1.63737 4.50462 1.7737 3.82568 2.0191L5.0036 3.19428C5.31168 3.07431 5.64705 3.00069 5.99879 3.00069Z" fill="black"/>
<path d="M0.545322 1.51465L1.78868 2.758L2.03681 3.00614C1.13701 3.70961 0.425358 4.64486 0 5.72733C0.943431 8.12132 3.27198 9.8173 5.99865 9.8173C6.84392 9.8173 7.651 9.65371 8.38993 9.35649L8.6217 9.58827L10.2114 11.1806L10.9066 10.4881L1.24062 0.819351L0.545322 1.51465ZM3.56102 4.52761L4.40355 5.37014C4.37901 5.4874 4.36265 5.60463 4.36265 5.72733C4.36265 6.62986 5.09612 7.36332 5.99865 7.36332C6.12135 7.36332 6.2386 7.34696 6.35312 7.32242L7.19565 8.16495C6.833 8.34491 6.42947 8.45399 5.99865 8.45399C4.49353 8.45399 3.27198 7.23244 3.27198 5.72733C3.27198 5.29652 3.38106 4.89297 3.56102 4.52761Z" fill="black"/>
</svg>
