<svg width="10" height="10" viewBox="0 0 10 10" fill="none" xmlns="http://www.w3.org/2000/svg">
<path d="M8.53586 1.46441C6.58321 -0.488027 3.41727 -0.488244 1.46441 1.46441C-0.488244 3.41706 -0.488027 6.583 1.46441 8.53586C3.41706 10.4881 6.583 10.4883 8.53586 8.53586C10.4883 6.583 10.4881 3.41727 8.53586 1.46441ZM5.65211 7.1741C5.65211 7.53432 5.36014 7.82628 4.99992 7.82628C4.63969 7.82628 4.34773 7.53432 4.34773 7.1741V4.56534C4.34773 4.20512 4.63969 3.91316 4.99992 3.91316C5.36014 3.91316 5.65211 4.20512 5.65211 4.56534V7.1741ZM4.9884 3.45054C4.61274 3.45054 4.3623 3.18444 4.37012 2.85596C4.3623 2.5116 4.61274 2.25355 4.99601 2.25355C5.37949 2.25355 5.62211 2.51182 5.63015 2.85596C5.62993 3.18444 5.37971 3.45054 4.9884 3.45054Z" fill="black"/>
</svg>
