<svg width="16" height="18" viewBox="0 0 16 18" fill="none" xmlns="http://www.w3.org/2000/svg">
<path d="M15.2 2.99998L15.2 2.79999H15H11.2V1.5C11.2 1.11317 10.8868 0.8 10.5 0.8H5.49998C5.11315 0.8 4.79998 1.11317 4.79998 1.5V2.79999H1H0.8V2.99999V4V4.2H1H1.80001V16C1.80001 16.6623 2.33835 17.2 3.00002 17.2H13C13.6617 17.2 14.2 16.6623 14.2 16V4.2H15H15.2L15.2 3.99999L15.2 2.99998ZM12.8 4.2V15.8H3.19999V4.2H12.8ZM6.19998 2.20001H9.79999V2.80002H6.19998V2.20001Z" fill="black" stroke="black" stroke-width="0.4"/>
</svg>
