<svg width="15" height="15" viewBox="0 0 15 15" fill="none" xmlns="http://www.w3.org/2000/svg">
<path d="M13.9501 5.80792L12.9181 5.63286C12.8106 5.28579 12.6724 4.95102 12.5035 4.6316L13.1116 3.78083C13.3696 3.41841 13.3297 2.92393 13.0133 2.61065L12.0981 1.69539C11.9261 1.52339 11.6988 1.42818 11.4561 1.42818C11.2657 1.42818 11.0845 1.48653 10.9309 1.5971L10.0771 2.20523C9.7454 2.03016 9.39833 1.88581 9.03899 1.77831L8.86699 0.758624C8.79328 0.319421 8.4155 0 7.97016 0H6.67712C6.23177 0 5.854 0.319421 5.78028 0.758624L5.60214 1.80288C5.25815 1.91038 4.92338 2.05166 4.60396 2.22366L3.75933 1.61553C3.60577 1.50496 3.42149 1.44661 3.23106 1.44661C2.98842 1.44661 2.75807 1.54182 2.58915 1.71381L1.67082 2.62908C1.35754 2.94235 1.31454 3.43684 1.57253 3.79926L2.1868 4.66231C2.01788 4.9848 1.88274 5.31958 1.77831 5.66664L0.758624 5.83864C0.319421 5.91235 0 6.29013 0 6.73547V8.02851C0 8.47386 0.319421 8.85163 0.758624 8.92535L1.80288 9.10348C1.91038 9.44748 2.05166 9.78225 2.22366 10.1017L1.6186 10.9432C1.36061 11.3056 1.40054 11.8001 1.71689 12.1134L2.63215 13.0287C2.80414 13.2007 3.03142 13.2959 3.27406 13.2959C3.46448 13.2959 3.64569 13.2375 3.79926 13.127L4.66231 12.5127C4.97252 12.6755 5.29808 12.8075 5.63286 12.912L5.80485 13.9439C5.87857 14.3831 6.25634 14.7026 6.70169 14.7026H7.9978C8.44314 14.7026 8.82092 14.3831 8.89463 13.9439L9.0697 12.912C9.41676 12.8045 9.75154 12.6663 10.071 12.4973L10.9217 13.1055C11.0753 13.216 11.2596 13.2744 11.45 13.2744C11.6926 13.2744 11.9199 13.1792 12.0919 13.0072L13.0072 12.0919C13.3204 11.7786 13.3634 11.2841 13.1055 10.9217L12.4973 10.0679C12.6663 9.7454 12.8075 9.41062 12.912 9.06663L13.9439 8.89463C14.3831 8.82092 14.7026 8.44314 14.7026 7.9978V6.70476C14.7087 6.25941 14.3893 5.88164 13.9501 5.80792ZM13.8794 7.9978C13.8794 8.03773 13.8518 8.07151 13.8119 8.07765L12.5219 8.29265C12.3591 8.32029 12.2301 8.44007 12.1902 8.59671C12.0735 9.0482 11.8953 9.48126 11.6558 9.88361C11.5729 10.0249 11.579 10.2 11.6742 10.3351L12.4328 11.4039C12.4543 11.4346 12.4513 11.4807 12.4236 11.5084L11.5084 12.4236C11.4869 12.4451 11.4654 12.4482 11.45 12.4482C11.4316 12.4482 11.4162 12.442 11.4039 12.4328L10.3382 11.6742C10.2061 11.579 10.028 11.5729 9.88668 11.6558C9.48433 11.8953 9.05127 12.0735 8.59978 12.1902C8.44007 12.2301 8.32029 12.3622 8.29572 12.5219L8.07765 13.8119C8.07151 13.8518 8.03773 13.8794 7.9978 13.8794H6.70476C6.66483 13.8794 6.63105 13.8518 6.6249 13.8119L6.40991 12.5219C6.38227 12.3591 6.26249 12.2301 6.10585 12.1902C5.66664 12.0766 5.2428 11.9015 4.84659 11.6742C4.78209 11.6373 4.70838 11.6189 4.63774 11.6189C4.55481 11.6189 4.46882 11.6435 4.39817 11.6957L3.3232 12.4605C3.30785 12.4697 3.29249 12.4758 3.27713 12.4758C3.26485 12.4758 3.24028 12.4728 3.21878 12.4513L2.30351 11.536C2.27587 11.5084 2.2728 11.4654 2.2943 11.4316L3.04985 10.372C3.14506 10.2368 3.15121 10.0587 3.06828 9.91739C2.82871 9.51812 2.64443 9.08506 2.52772 8.63357C2.48472 8.47693 2.35573 8.35715 2.19602 8.3295L0.896835 8.10837C0.856907 8.10222 0.829265 8.06844 0.829265 8.02851V6.73547C0.829265 6.69554 0.856907 6.66176 0.896835 6.65562L2.17759 6.44062C2.34037 6.41298 2.47244 6.2932 2.51237 6.13349C2.62601 5.682 2.80107 5.24587 3.03757 4.84352C3.12049 4.70224 3.11128 4.52717 3.01607 4.3951L2.2513 3.32013C2.2298 3.28942 2.23287 3.24335 2.26051 3.2157L3.17578 2.30044C3.19728 2.27894 3.21878 2.27587 3.23413 2.27587C3.25256 2.27587 3.26792 2.28201 3.2802 2.29123L4.33982 3.04678C4.47496 3.14199 4.6531 3.14813 4.79438 3.06521C5.19366 2.82564 5.62672 2.64136 6.0782 2.52465C6.23484 2.48165 6.35463 2.35265 6.38227 2.19294L6.6034 0.893763C6.60955 0.853836 6.64333 0.826193 6.68326 0.826193H7.9763C8.01623 0.826193 8.05001 0.853836 8.05615 0.893763L8.27115 2.17452C8.29879 2.3373 8.41857 2.46937 8.57828 2.50929C9.04206 2.626 9.48433 2.80721 9.89589 3.04985C10.0372 3.13278 10.2122 3.12664 10.3474 3.03142L11.407 2.26973C11.4224 2.26051 11.4377 2.25437 11.4531 2.25437C11.4654 2.25437 11.4899 2.25744 11.5114 2.27894L12.4267 3.19421C12.4543 3.22185 12.4574 3.26485 12.4359 3.29863L11.6773 4.36439C11.5821 4.49646 11.5759 4.6746 11.6588 4.81588C11.8984 5.21823 12.0766 5.65129 12.1933 6.10277C12.2332 6.26248 12.3653 6.38227 12.525 6.40684L13.8149 6.6249C13.8549 6.63105 13.8825 6.66483 13.8825 6.70476V7.9978H13.8794Z" fill="black"/>
<path d="M7.353 4.17712C5.60233 4.17712 4.1803 5.59916 4.1803 7.34983C4.1803 9.1005 5.60233 10.5225 7.353 10.5225C9.10367 10.5225 10.5257 9.1005 10.5257 7.34983C10.5257 5.59916 9.10367 4.17712 7.353 4.17712ZM7.353 9.69327C6.05996 9.69327 5.00956 8.64287 5.00956 7.34983C5.00956 6.05679 6.05996 5.00639 7.353 5.00639C8.64604 5.00639 9.69644 6.05679 9.69644 7.34983C9.69644 8.64287 8.64604 9.69327 7.353 9.69327Z" fill="black"/>
<path d="M2.48047 3.07031C2.57668 3.20982 2.69613 3.34233 2.81935 3.45828C2.9141 3.54743 3.02105 3.62258 3.11325 3.71478C3.13861 3.74014 3.157 3.77411 3.18628 3.79541C3.21951 3.81957 3.24563 3.82768 3.26925 3.86377C3.38024 4.03333 3.52307 4.18047 3.62683 4.3534" stroke="black" stroke-linecap="round" stroke-linejoin="round"/>
<path d="M2.76367 2.33398C3.32929 2.79582 3.95089 3.18526 4.60416 3.5119" stroke="black" stroke-linecap="round" stroke-linejoin="round"/>
<path d="M3.732 2.76562C4.01828 3.01755 4.28911 3.28673 4.56402 3.5509C4.59119 3.57702 4.89402 3.8408 4.85849 3.89095C4.83859 3.91906 4.5124 3.76069 4.48455 3.75306C4.32483 3.70928 4.13191 3.69911 3.99843 3.815C3.87612 3.92118 3.86288 4.07812 3.84184 4.2275C3.83736 4.25933 3.83492 4.27658 3.82548 4.23276C3.81459 4.18219 3.81059 4.12792 3.79276 4.07909C3.77745 4.03716 3.75864 4.0431 3.73141 4.07383C3.65009 4.16562 3.58628 4.27338 3.51114 4.37006C3.45171 4.44654 3.39006 4.51842 3.31307 4.57748C3.30474 4.58387 3.26508 4.61952 3.24588 4.61196C3.21861 4.60121 3.12601 4.27059 3.11383 4.28125C3.08879 4.30316 3.20672 4.46358 3.22017 4.48341C3.22099 4.48463 3.25411 4.54286 3.26282 4.53951C3.26697 4.53791 3.26873 4.53223 3.26925 4.52782C3.27395 4.48799 3.26611 4.39861 3.2634 4.37123C3.24786 4.21402 3.22266 4.05779 3.19329 3.90264C3.18442 3.85579 3.17665 3.77351 3.15356 3.72618C3.14211 3.70272 3.14874 3.77849 3.15122 3.80448C3.16072 3.9038 3.17819 4.00286 3.20965 4.09779C3.26753 4.27241 3.36534 4.39787 3.53101 4.48108C3.6369 4.53426 3.71872 4.50409 3.8173 4.45186C4.00604 4.35187 4.19132 4.24638 4.37705 4.14102C4.40688 4.1241 4.52204 4.03336 4.4939 4.1235C4.41223 4.38519 4.31393 4.64175 4.23331 4.9041C4.2252 4.93049 4.21685 4.95683 4.20994 4.98356C4.20073 5.01921 4.20554 5.0114 4.2228 4.9894C4.27201 4.92665 4.31399 4.85788 4.35484 4.78958C4.403 4.70908 4.44343 4.61 4.50676 4.53951C4.51235 4.53328 4.52412 4.52099 4.52896 4.52782C4.55021 4.55781 4.51913 4.60164 4.50442 4.63533C4.40695 4.85859 4.23656 5.05345 4.11412 5.26401C4.09961 5.28896 4.05391 5.36251 4.06854 5.33763C4.10428 5.27688 4.14851 5.22111 4.18891 5.16352C4.25777 5.06536 4.32049 4.96393 4.38172 4.86086C4.40455 4.82244 4.42664 4.78358 4.4495 4.74517C4.46384 4.72106 4.47742 4.69643 4.49332 4.67331C4.49894 4.66513 4.50436 4.64855 4.51377 4.65169C4.52943 4.65691 4.43237 5.03757 4.42846 5.08055C4.42733 5.09305 4.4151 5.16201 4.43314 5.17404C4.47927 5.20479 4.55194 5.16005 4.58856 5.13781C4.7602 5.03357 4.90707 4.8962 5.0478 4.75452C5.15431 4.6473 4.99742 4.87922 4.98587 4.87488C4.9704 4.86908 4.98456 4.7781 4.99405 4.76387" stroke="black" stroke-linecap="round" stroke-linejoin="round"/>
<path d="M3.61554 5.48885C3.54418 5.71187 3.49064 6.08657 3.41484 5.6697C3.39662 5.56947 3.33039 5.5281 3.33985 5.40504C3.37241 4.9818 3.18917 5.45742 3.13033 5.63C3.0304 5.92313 3.10705 5.33372 3.09725 5.2308C3.0796 5.04543 3.00461 5.59901 3.02226 5.78438C3.04696 6.0437 3.32642 5.66432 3.3597 5.60574C3.38504 5.56114 3.4843 5.32701 3.5582 5.43591C3.6531 5.57576 3.70543 5.77309 3.74787 5.93436C3.79173 6.10102 3.82899 6.34582 3.98607 6.07551C4.01265 6.02975 4.17905 5.61782 4.1625 5.74468C4.13857 5.92818 4.20142 5.85418 4.21103 5.86378C4.25869 5.91145 4.11012 6.15712 4.08311 6.20343C4.00914 6.33023 3.86492 6.42583 3.73464 6.48132C3.55464 6.55798 3.51245 6.69964 3.40823 6.83861C3.27865 7.01138 3.12717 6.04833 2.85244 6.79009C2.83849 6.82776 2.74544 6.42658 2.72452 6.36002C2.65714 6.14562 2.57916 6.61209 2.54808 6.68202C2.52991 6.72292 2.54219 6.58745 2.515 6.5519C2.43637 6.44908 2.31571 6.65939 2.29004 6.70407C2.25248 6.76945 2.15662 7.10079 2.02538 7.06798C1.90561 7.03804 1.87675 6.78002 1.72984 6.86508C1.59331 6.94412 1.67545 7.06119 1.55561 6.91139C1.50703 6.85067 1.52074 7.06339 1.49386 7.13635C1.42775 7.31578 1.43778 7.19709 1.4299 7.05916C1.41709 6.83511 1.3225 6.96847 1.313 7.10768C1.31126 7.13331 1.31748 7.21519 1.27331 7.21795C1.25564 7.21906 1.23521 7.16503 1.23361 7.18267C1.21886 7.34484 1.20848 7.57397 1.27331 7.72522C1.33233 7.86295 1.43072 7.33437 1.4321 7.26648C1.43239 7.25252 1.50838 7.00173 1.313 6.90919C1.18889 6.85039 0.916016 6.79891 0.916016 6.79891" stroke="black" stroke-linecap="round" stroke-linejoin="round"/>
<path d="M1.03904 7.83467C1.0065 7.9203 1.082 7.92633 1.15355 7.93984C1.29662 7.96687 1.44232 7.95974 1.58709 7.96088C1.74218 7.9621 1.89947 7.97396 2.05452 7.98191C2.08441 7.98344 2.09487 8.00635 2.12697 7.98542C2.21785 7.92614 2.22125 7.78011 2.23097 7.68509C2.23489 7.64682 2.21361 7.53467 2.26252 7.51682C2.35356 7.4836 2.44499 7.45453 2.53597 7.42041C2.69344 7.36136 2.88308 7.34929 3.04955 7.3392C3.2024 7.32994 3.30331 7.23921 3.40713 7.13938C3.4758 7.07335 3.54657 7.00987 3.61397 6.94247C3.65566 6.90078 3.69371 6.86169 3.74952 6.84022C3.82935 6.80952 3.98781 6.718 4.03874 6.83204C4.11935 7.01253 4.03878 7.20961 3.85878 7.28194C3.71773 7.33862 3.56701 7.35252 3.42174 7.39295C3.27728 7.43316 3.13408 7.48897 2.99521 7.54487C2.85044 7.60314 2.78585 7.73218 2.75799 7.88258C2.75081 7.92135 2.74337 7.96452 2.7428 8.00411C2.74198 8.06158 2.72426 8.15439 2.7539 8.20627C2.77051 8.23533 2.81159 8.22314 2.83687 8.21329C2.97699 8.15866 3.05873 8.00982 3.19679 7.94627C3.30675 7.89565 3.43766 7.87319 3.55554 7.84577C3.59907 7.83565 3.6394 7.81847 3.68408 7.81364C3.82352 7.79856 3.95872 7.78786 3.98148 7.96789C3.9972 8.09225 3.89071 8.15572 3.78399 8.19225C3.54986 8.27241 3.29586 8.2929 3.0513 8.3243C2.91969 8.3412 2.76755 8.37733 2.74514 8.5323C2.72492 8.67216 2.72241 8.85231 2.89004 8.88463C3.04886 8.91524 3.23291 8.90276 3.39077 8.87469C3.5563 8.84527 3.68845 8.74545 3.82314 8.65033C3.93722 8.56976 4.04308 8.46493 4.16728 8.39967C4.2442 8.35926 4.33878 8.34117 4.42261 8.32021C4.45951 8.31099 4.60316 8.27542 4.60316 8.343C4.60316 8.58033 4.34864 8.68494 4.15443 8.71577C3.82805 8.76757 3.48634 8.78938 3.17167 8.8969C3.05235 8.93766 2.96508 9.03968 2.96366 9.16567C2.963 9.22432 2.95701 9.28805 2.98469 9.34212C3.07006 9.50882 3.24482 9.47059 3.39603 9.4321C3.52358 9.39963 3.62449 9.3286 3.74426 9.28018C3.82557 9.24731 3.91812 9.23325 4.00251 9.20832C4.11469 9.17517 4.21863 9.13834 4.33555 9.18086C4.37298 9.19447 4.40997 9.19685 4.44832 9.21299C4.53469 9.24936 4.5822 9.29545 4.64639 9.35965" stroke="black" stroke-linecap="round" stroke-linejoin="round"/>
<path d="M3.10028 9.73865C3.21442 9.91038 3.33641 10.076 3.45669 10.2435C3.46907 10.2607 3.51446 10.3062 3.52037 10.3329C3.53175 10.384 3.47002 10.3907 3.43741 10.3907C3.39748 10.3907 3.34342 10.3821 3.30594 10.3977C3.22819 10.4302 3.23979 10.5592 3.20077 10.6244C3.14342 10.7203 3.07172 10.7846 2.98634 10.8529C2.94722 10.8842 2.89337 10.8806 2.84787 10.9066C2.69892 10.9917 2.8249 11.2811 2.87124 11.3933C2.89966 11.4622 2.92363 11.532 2.95713 11.599C2.996 11.6767 3.05956 11.7334 3.12949 11.7866C3.23613 11.8676 3.39849 11.8604 3.50694 11.7883C3.5687 11.7473 3.63539 11.6663 3.70793 11.6446C3.73167 11.6375 3.68417 11.7318 3.67988 11.7369C3.62458 11.8023 3.53798 11.8374 3.47129 11.8894C3.44024 11.9136 3.37197 12.0097 3.32581 11.9875C3.24366 11.9481 3.16595 11.9096 3.10495 11.8403C3.04159 11.7684 3.0255 11.6923 2.97641 11.6154C2.94042 11.5589 2.86255 11.5168 2.80346 11.4845C2.76442 11.4631 2.72155 11.4589 2.67959 11.4465C2.64366 11.4359 2.608 11.4109 2.56975 11.4109C2.55916 11.4109 2.56337 11.4088 2.57208 11.4039C2.66898 11.3483 2.76352 11.2891 2.85955 11.2321C3.10151 11.0885 3.35251 10.9471 3.61795 10.8505C3.84649 10.7674 4.08632 10.7251 4.31558 10.6466C4.40913 10.6146 4.48561 10.5759 4.49671 10.4713C4.51795 10.2714 4.39484 10.1723 4.19873 10.1406C4.06028 10.1183 3.90711 10.1052 3.76986 10.1424C3.75995 10.1451 3.70291 10.1763 3.74766 10.1663C3.82553 10.149 3.87606 10.0829 3.8984 10.0103C3.91161 9.96742 3.94031 9.91711 3.98897 9.90984C4.14665 9.88631 4.31175 9.89722 4.471 9.87771C4.60268 9.86158 4.69547 9.83266 4.80988 9.77137C4.88268 9.73237 5.01349 9.71899 5.088 9.76202C5.17139 9.81017 5.25765 9.82579 5.27614 9.93146C5.29814 10.0572 5.27415 10.1879 5.15227 10.2505C4.93192 10.3636 4.72205 10.4953 4.50489 10.6139C4.34596 10.7007 4.24014 10.8026 4.19989 10.982C4.1714 11.109 4.1625 11.2257 4.1625 11.3548C4.1625 11.3889 4.1444 11.49 4.19639 11.4932C4.27208 11.498 4.35019 11.4311 4.40731 11.3904C4.67447 11.2001 4.87731 10.9314 5.01205 10.6361C5.10647 10.4292 5.35731 10.2577 5.56595 10.1722C5.66848 10.1302 5.77289 10.0899 5.87854 10.0565C5.90316 10.0487 5.92785 10.0411 5.95274 10.0343C5.97713 10.0276 6.0269 9.99615 6.02753 10.0214C6.02816 10.0465 6.01371 10.0698 6.00357 10.0927C5.92665 10.2667 5.80536 10.49 5.71786 10.6437C5.52001 10.9913 5.31027 11.3982 4.99218 11.6557C4.94765 11.6917 4.91983 11.7404 4.8835 11.7836C4.86991 11.7998 4.8133 11.8831 4.84027 11.9052C4.87978 11.9375 4.97492 11.9038 5.01205 11.8888C5.23611 11.7981 5.46838 11.6884 5.67345 11.5604C5.7896 11.488 5.89271 11.3931 5.97962 11.2876C6.05391 11.1974 6.08885 11.0773 6.16659 10.9925C6.21065 10.9445 6.27923 10.909 6.33077 10.8686C6.39954 10.8148 6.47161 10.7667 6.53702 10.7086C6.5602 10.688 6.58882 10.6731 6.61064 10.6513C6.6188 10.6431 6.63168 10.6123 6.63168 10.6238C6.63168 10.6527 6.60666 10.7122 6.59896 10.7343C6.53467 10.9187 6.44116 11.0908 6.38043 11.2765C6.33407 11.4183 6.29454 11.5631 6.26241 11.7088C6.24298 11.797 6.25158 11.8862 6.23962 11.9747C6.23383 12.0175 6.22385 12.2281 6.22385 12.0746C6.22385 11.8853 6.25338 11.7059 6.30798 11.5242C6.38032 11.2835 6.46208 11.0277 6.60363 10.8172C6.68897 10.6904 6.78276 10.5458 6.90045 10.4468C6.92886 10.4229 6.9714 10.3935 7.00795 10.3825C7.03697 10.3738 7.06669 10.3621 7.09618 10.3556C7.11593 10.3513 7.14343 10.3564 7.15052 10.3802C7.1919 10.519 7.1617 10.732 7.15519 10.8663C7.14361 11.1054 7.12584 11.3436 7.06872 11.5768C7.03413 11.718 6.9823 11.855 6.932 11.9911C6.88595 12.1156 6.85357 12.232 6.83851 12.3632C6.81637 12.5562 6.8128 12.7437 6.8128 12.9382C6.8128 13.014 6.82332 13.0868 6.82332 13.1625C6.82332 13.2026 6.81181 13.2646 6.83033 13.3016C6.84508 13.3311 6.91527 13.347 6.94135 13.3565C7.17084 13.44 7.43928 13.4151 7.68105 13.4196C7.71551 13.4203 7.76768 13.4574 7.7348 13.4932C7.69985 13.5314 7.6328 13.5297 7.58581 13.5412C7.52611 13.5557 7.47164 13.5676 7.40994 13.5721C7.30128 13.5801 7.19521 13.5719 7.08858 13.5937C6.99349 13.6132 6.89459 13.6203 6.79878 13.6381C6.76586 13.6443 6.81733 13.6397 6.82157 13.6393C6.87694 13.6339 6.93125 13.6092 6.98108 13.5867C7.12738 13.5209 7.26844 13.4443 7.40527 13.3606C7.52528 13.2872 7.64196 13.1766 7.78446 13.1514C7.82949 13.1435 7.87528 13.1384 7.91359 13.1117C8.11202 12.9733 8.09222 12.6671 8.10874 12.4544C8.13352 12.1354 8.15435 11.7907 8.09589 11.474C8.08086 11.3926 8.05128 11.3089 8.03045 11.2286C8.00317 11.1233 7.99191 11.016 7.95215 10.9142C7.94486 10.8956 7.8928 10.7479 7.87737 10.8055C7.84688 10.9195 7.82924 11.0364 7.7979 11.1503C7.7326 11.3877 7.6431 11.6168 7.55893 11.8479C7.46044 12.1183 7.37808 12.3779 7.34917 12.6624C7.34141 12.7388 7.35243 12.9492 7.28607 12.9989" stroke="black" stroke-linecap="round" stroke-linejoin="round"/>
<path d="M8.34997 10.4179C8.32609 10.597 8.3339 10.7633 8.38222 10.9384C8.41768 11.0669 8.46766 11.2082 8.52916 11.3273C8.5894 11.4439 8.62038 11.5584 8.64832 11.6865C8.65319 11.7089 8.65962 11.7496 8.68774 11.7546C8.77621 11.7704 8.82848 11.6905 8.86334 11.6229C8.96343 11.4289 8.96887 11.2199 8.9386 11.0065C8.91667 10.8519 8.87902 10.7041 8.81854 10.5603C8.79597 10.5067 8.77649 10.4557 8.77106 10.3973C8.76662 10.3496 8.76927 10.3009 8.76927 10.253C8.76927 10.2466 8.77078 10.2062 8.77285 10.21C8.95062 10.5402 9.16559 10.8623 9.2898 11.218C9.31842 11.2999 9.35003 11.3803 9.38029 11.4617C9.40712 11.5338 9.44127 11.5909 9.36506 11.6328C9.32342 11.6557 9.2792 11.6718 9.24053 11.7C9.22979 11.7078 9.22122 11.7233 9.24411 11.7188C9.28701 11.7103 9.3233 11.673 9.3561 11.6471C9.506 11.5288 9.69102 11.5226 9.87485 11.5226C9.97836 11.5226 10.0876 11.5137 10.1902 11.5297C10.2653 11.5415 10.3366 11.5683 10.4097 11.588C10.4495 11.5987 10.4917 11.6048 10.528 11.6256C10.5761 11.6532 10.6038 11.7003 10.6355 11.7439C10.6793 11.8041 10.7269 11.8558 10.7923 11.8926C10.8291 11.9133 10.8675 11.9222 10.9061 11.9374C10.9694 11.9624 11.0268 11.9895 11.0951 12.0001C11.1811 12.0135 11.2403 12.0671 11.3281 12.0754C11.4714 12.0888 11.5404 11.9622 11.5655 11.8353C11.5955 11.6833 11.6139 11.5292 11.6434 11.3774C11.6576 11.3046 11.689 11.2366 11.7527 11.1938C11.7763 11.1779 11.82 11.1519 11.8396 11.1866C11.8927 11.2804 11.875 11.4194 11.9763 11.4845C11.9844 11.4897 12.0223 11.3892 12.026 11.3738C12.0384 11.3227 12.0762 11.2899 12.0166 11.2641C11.7369 11.1429 11.4305 11.0843 11.1318 11.0316C10.9999 11.0083 10.8506 11.0157 10.73 10.9514C10.6391 10.903 10.5258 10.9005 10.4258 10.899C10.268 10.8967 10.1062 10.904 9.95638 10.9586C9.9063 10.9768 9.86766 11.0176 9.81885 11.0338C9.70943 11.0703 9.61189 11.025 9.51737 10.9716C9.39409 10.902 9.27445 10.8257 9.15273 10.7534C9.03538 10.6838 9.06306 10.7006 8.9601 10.6414C8.94254 10.6313 8.90827 10.6167 8.89515 10.5957C8.85745 10.5357 8.87394 10.4412 8.93188 10.4058C8.98778 10.3716 9.04855 10.3689 9.10614 10.3417C9.13815 10.3266 9.17634 10.316 9.21186 10.3135C9.30025 10.3072 9.27035 10.2474 9.28219 10.1764C9.30345 10.0489 9.51406 10.0317 9.61324 10.0273C9.79534 10.0192 9.9664 10.0967 10.1409 10.1366C10.4322 10.203 10.7177 10.2802 11.006 10.3574C11.1541 10.3971 11.2989 10.46 11.4544 10.4255C11.5167 10.4116 11.5069 10.3809 11.5104 10.3207C11.514 10.2572 11.4369 10.2216 11.3899 10.1966C10.9542 9.96504 10.4591 9.92209 9.98774 9.80193C9.95088 9.79254 9.92354 9.76434 9.89456 9.74056C9.86989 9.72032 9.82361 9.6949 9.80631 9.66799C9.76641 9.60593 9.90729 9.58155 9.93443 9.57616C10.1314 9.53705 10.3342 9.54704 10.5338 9.54704C10.6876 9.54704 10.8417 9.54572 10.9952 9.55645C11.0936 9.56332 11.1882 9.58445 11.2855 9.599C11.396 9.61555 11.5097 9.61593 11.6179 9.64425C11.6729 9.65867 11.724 9.67205 11.7765 9.69173C11.8294 9.71158 11.6866 9.74687 11.6802 9.74863" stroke="black" stroke-linecap="round" stroke-linejoin="round"/>
<path d="M10.8519 9.24359C10.867 9.07787 10.9121 8.91816 10.9284 8.75337C10.9311 8.72668 10.9536 8.3767 10.9337 8.37301C10.9277 8.3719 10.9235 8.37997 10.9197 8.38469C10.8891 8.42231 10.8406 8.50138 10.8203 8.53368C10.7326 8.67386 10.6504 8.81718 10.5527 8.95086C10.4975 9.02642 10.4372 9.09718 10.3786 9.16997C10.341 9.21671 10.3619 9.14468 10.3652 9.11797C10.3745 9.04237 10.3887 8.9685 10.4102 8.89535C10.4208 8.85904 10.4495 8.76995 10.4312 8.86731C10.422 8.91621 10.3791 9.04926 10.4283 9.08992C10.4549 9.1119 10.5085 9.10541 10.5375 9.10219C10.7369 9.08012 10.9132 8.9965 11.0751 8.88016C11.2951 8.72203 11.4843 8.52294 11.6489 8.30873C11.6492 8.30829 11.8652 8.01083 11.8674 8.01426C11.8871 8.04472 11.8712 8.162 11.8703 8.18896C11.8639 8.37671 11.8509 8.56485 11.8306 8.75162C11.8236 8.81527 11.8111 8.87757 11.8031 8.94093C11.8024 8.94611 11.8073 8.95934 11.8101 8.95495C11.8248 8.93219 11.8416 8.88407 11.8487 8.86263C11.8737 8.78651 11.892 8.70842 11.9176 8.63243C11.9544 8.52325 11.959 8.58887 11.9585 8.66982C11.9577 8.80539 11.9433 8.9414 11.9007 9.07064C11.8838 9.1218 11.8663 9.13822 11.8849 9.08232C11.9248 8.9626 12.0006 8.85681 12.059 8.74578C12.1071 8.65442 12.1401 8.5575 12.1957 8.47C12.2299 8.41631 12.2728 8.35557 12.3208 8.31341C12.3992 8.24449 12.5345 8.23098 12.6345 8.22343C12.911 8.20256 13.2139 8.15414 13.4181 7.94999C13.5849 7.78314 13.6747 7.5827 13.6471 7.3435C13.6315 7.20794 13.5333 7.07001 13.4473 6.97014C13.4052 6.92137 13.3493 6.8703 13.2813 6.86673C13.1868 6.86175 13.0938 6.83919 13.0003 6.82583C12.8277 6.80116 12.7184 6.85446 12.5679 6.93684C12.4846 6.98245 12.4013 7.02808 12.3161 7.07006C12.2473 7.10393 12.17 7.13112 12.1081 7.17756C12.0632 7.21126 12.049 7.2845 12.0684 7.33649C12.0789 7.36476 12.0934 7.38286 12.1239 7.39024C12.2298 7.41592 12.3583 7.41326 12.4657 7.40836C12.6504 7.39992 12.8346 7.36507 13.0114 7.31137C13.0601 7.29655 13.2049 7.24831 13.1551 7.25936C13.0101 7.29159 12.8796 7.39701 12.7415 7.45101C12.6902 7.47106 12.5078 7.58409 12.5095 7.47613C12.5121 7.31271 12.5136 7.14941 12.5136 6.98592C12.5136 6.92658 12.5246 6.85352 12.5089 6.79544C12.4854 6.70825 12.456 6.62577 12.4002 6.55355C12.367 6.51044 12.3262 6.47403 12.2933 6.43085C12.2508 6.375 12.4086 6.39309 12.4359 6.39463C12.7322 6.41132 13.0297 6.5262 13.3035 6.6336C13.3943 6.66921 13.4745 6.71926 13.5665 6.75104C13.599 6.76227 13.6255 6.78464 13.6594 6.79311C13.7166 6.80743 13.5726 6.85302 13.5635 6.85563C13.4283 6.89427 13.283 6.90583 13.1434 6.91697C12.8725 6.93862 12.5839 6.89346 12.3255 6.9941C12.1199 7.07413 11.9692 7.21759 11.7879 7.33474C11.7607 7.35232 11.7066 7.3916 11.6757 7.35752C11.6282 7.30513 11.6004 7.22668 11.5723 7.16413C11.5107 7.02694 11.4456 6.89895 11.3643 6.77207C11.35 6.74975 11.2764 6.59278 11.2235 6.60789C11.1667 6.62413 11.144 6.70845 11.1242 6.75454C11.0831 6.84977 11.0395 6.94249 10.9933 7.035C10.9738 7.07396 10.9796 7.04552 10.9465 7.04552C10.8877 7.04552 10.9045 7.21764 10.9045 7.25995C10.9045 7.43173 10.9215 7.60872 10.8788 7.77587C10.8671 7.82165 10.855 7.86884 10.8519 7.9161C10.8502 7.94143 10.8093 7.95218 10.7911 7.96635C10.7623 7.98874 10.7221 8.01134 10.6982 8.03821C10.663 8.07782 10.8028 8.02063 10.8554 8.01426C10.9145 8.00709 10.9724 8.00661 11.0307 7.99205" stroke="black" stroke-linecap="round" stroke-linejoin="round"/>
<path d="M11.9031 4.82715C12.0302 5.07456 12.1536 5.32198 12.2408 5.58672C12.245 5.59933 12.2856 5.73817 12.2314 5.67494C12.0962 5.5172 12.0191 5.30876 11.8388 5.19116C11.7629 5.14165 11.6331 5.10104 11.6004 5.21394C11.5404 5.42157 11.5423 5.65962 11.5291 5.87418C11.527 5.90873 11.5351 5.9783 11.5233 6.01383C11.5184 6.02839 11.5143 5.98443 11.511 5.96942C11.4967 5.90361 11.4918 5.87559 11.4742 5.80582C11.4636 5.76374 11.4386 5.5911 11.3936 5.56334C11.3841 5.55747 11.3884 5.58552 11.3895 5.59665C11.3939 5.64078 11.4018 5.68452 11.4099 5.72811C11.4343 5.85793 11.4759 6.04497 11.5081 6.17217C11.5333 6.27151 11.5659 6.36015 11.5969 6.45613C11.6208 6.53009 11.5178 6.32222 11.4806 6.25397C11.348 6.01051 11.1604 5.82309 10.8677 5.8029C10.7661 5.79589 10.7366 5.88684 10.7357 5.97117C10.7356 5.98238 10.7466 6.04156 10.7462 6.03311C10.7401 5.89968 10.7012 5.50241 10.6942 5.63579C10.6867 5.77894 10.6936 5.9243 10.6936 6.06758C10.6936 6.16249 10.6931 6.25732 10.6983 6.35212C10.7045 6.46683 10.7031 6.40431 10.71 6.51222C10.7112 6.53089 10.7238 6.57766 10.7076 6.56831C10.6867 6.55625 10.6679 6.47363 10.6615 6.45613C10.6402 6.3985 10.6202 6.33827 10.5902 6.28435C10.5638 6.2369 10.6175 6.34527 10.6305 6.36264" stroke="black" stroke-linecap="round" stroke-linejoin="round"/>
<path d="M11.062 2.60729C11.1377 2.53966 11.2343 2.51368 11.329 2.48166C11.3903 2.46097 11.4533 2.42946 11.5189 2.42849C11.5472 2.42808 11.5906 2.42126 11.6159 2.43784C11.6786 2.47891 11.7153 2.55985 11.7713 2.61079C11.9222 2.74799 12.1483 2.89268 11.9776 3.11678C11.8953 3.22484 11.8332 3.36514 11.7737 3.48605C11.7162 3.60283 11.6715 3.72996 11.6346 3.85414C11.5735 4.05956 11.4795 4.26015 11.4067 4.4618C11.3696 4.5648 11.2922 4.63306 11.235 4.72355C11.1743 4.81953 11.1143 4.91029 11.0421 4.99817C10.9734 5.08192 10.9016 5.15146 10.8178 5.22019C10.7525 5.27374 10.6954 5.33592 10.632 5.39139C10.5488 5.46414 10.4494 5.45969 10.3469 5.47494C10.2945 5.48272 10.2267 5.4988 10.1786 5.52285C10.1505 5.53689 10.2033 5.56601 10.1984 5.55908C10.0883 5.40052 9.97851 5.23486 9.8432 5.09633C9.72533 4.97566 9.63035 4.83281 9.52068 4.70486C9.5009 4.68178 9.69879 4.70363 9.71174 4.70544C9.9688 4.74148 10.2383 4.72354 10.4964 4.7107C10.6196 4.70457 10.7667 4.71974 10.8493 4.60904C10.9104 4.52715 10.9308 4.41181 10.9779 4.3204C11.0233 4.23228 11.0795 4.15369 11.1199 4.06215C11.1932 3.8957 11.217 3.70773 11.2981 3.54564C11.3514 3.43897 11.3775 3.32168 11.3775 3.2015C11.3775 3.07743 11.2368 3.07004 11.1426 3.07004C10.9476 3.07004 10.7645 3.06434 10.5922 3.1717C10.3245 3.33857 10.0675 3.52564 9.82801 3.73144C9.70052 3.84101 9.58336 3.95429 9.44414 4.05046C9.33235 4.12768 9.21107 4.18889 9.10116 4.2684C9.08754 4.27825 8.98799 4.33116 8.99249 4.35546C8.99848 4.38782 9.14194 4.38186 9.15492 4.38233C9.26216 4.38625 9.37209 4.39064 9.47744 4.36597C9.67101 4.32065 9.86053 4.2495 10.05 4.19069C10.2986 4.11355 10.5492 4.0463 10.7997 3.97626C10.9277 3.94047 11.0558 3.9002 11.1876 3.88044C11.1913 3.87989 11.2918 3.84745 11.2759 3.83778C11.2257 3.80731 11.0939 3.83425 11.041 3.83545C10.9397 3.83773 10.8371 3.84179 10.736 3.83311C10.4414 3.80782 10.3069 3.6332 10.2218 3.3686C10.1804 3.23983 10.1175 3.19923 10.001 3.13781C9.88078 3.07448 9.7696 3.02658 9.6387 2.99116C9.37939 2.92099 9.12221 2.84351 8.86394 2.76972C8.76477 2.74138 8.66509 2.72057 8.56479 2.69726C8.55419 2.6948 8.4475 2.65218 8.43274 2.66221C8.4117 2.67652 8.42969 2.79115 8.43041 2.80711C8.43724 2.95868 8.45331 3.10934 8.46546 3.26051C8.48174 3.46292 8.48137 3.65526 8.38658 3.8407C8.37819 3.85712 8.36253 3.87981 8.35912 3.89855C8.35153 3.94029 8.46454 3.89362 8.46663 3.89271C8.68565 3.79738 8.87437 3.61544 9.07428 3.48721C9.11519 3.46098 9.15912 3.44052 9.20633 3.4282C9.29075 3.40618 9.29038 3.43998 9.2449 3.52169C9.12119 3.74389 8.85341 3.84452 8.6314 3.93477C8.53571 3.97368 8.43301 4.00396 8.3451 4.05981C8.30547 4.08499 8.34949 4.07744 8.36964 4.07968" stroke="black" stroke-linecap="round" stroke-linejoin="round"/>
<path d="M6.88672 1.03027C6.85707 1.2543 6.87931 1.48165 6.8318 1.70337C6.82726 1.72456 6.82027 1.74533 6.81544 1.76647C6.81366 1.77425 6.8131 1.7819 6.8131 1.78984C6.8131 1.83424 6.81978 1.70125 6.82537 1.65721C6.8512 1.45377 6.93889 1.25302 7.12219 1.14304C7.19713 1.09807 7.36549 1.09347 7.44413 1.1296C7.49965 1.15511 7.54782 1.19744 7.59545 1.23477C7.65407 1.28071 7.64444 1.34634 7.65447 1.41473C7.6831 1.6101 7.67732 1.8033 7.71114 1.99843C7.71941 2.0461 7.71146 2.18379 7.7351 2.14158C7.76122 2.09494 7.77031 2.02996 7.78126 1.97973C7.81034 1.84631 7.83415 1.71254 7.84144 1.57599C7.84955 1.4239 7.84377 0.966779 7.84377 1.11908C7.84377 1.65759 7.91787 2.18426 8.02081 2.71184C8.02684 2.74272 8.07312 2.86933 8.05178 2.90231C8.02765 2.9396 7.95101 2.88929 7.93317 2.8766C7.7705 2.76097 7.62389 2.65532 7.43186 2.59264C7.2081 2.51961 6.9737 2.49084 6.74182 2.45475C6.51351 2.41922 6.28976 2.40801 6.05938 2.40801C6.04132 2.40801 6.01273 2.40363 5.99511 2.41035C5.98945 2.4125 6.06605 2.43287 6.07807 2.43722C6.1119 2.44948 6.14472 2.482 6.14293 2.52136C6.14009 2.58394 5.95079 2.61361 5.91331 2.62653C5.78119 2.67209 5.6585 2.73689 5.53528 2.80182C5.42297 2.86099 5.2959 2.90885 5.22093 3.01742C5.18948 3.06297 5.12008 3.18244 5.16659 3.24003C5.21702 3.30246 5.41453 3.23462 5.46692 3.22016C5.76564 3.13773 6.0602 3.05249 6.36379 2.9882C6.59193 2.93989 6.81171 2.90736 7.04565 2.90348C7.1948 2.90101 7.34403 2.90231 7.49321 2.90231C7.54081 2.90231 7.59557 2.89537 7.64103 2.91166C7.72135 2.94046 7.80454 3.01147 7.87182 3.06358C7.92244 3.10278 8.01799 3.22718 7.9133 3.26457C7.74482 3.32474 7.53331 3.3115 7.35765 3.31248C7.03988 3.31424 6.72182 3.30703 6.4041 3.31365C6.13053 3.31935 5.8575 3.33351 5.58377 3.33351C5.44315 3.33351 5.34195 3.33574 5.21918 3.4048C5.10813 3.46726 4.94946 3.53752 4.90075 3.6648C4.81747 3.88239 5.22645 3.91498 5.34188 3.92481C5.56938 3.94418 5.7975 3.94145 6.02315 3.90436C6.21068 3.87353 6.38899 3.80911 6.57121 3.7577C6.80712 3.69114 7.06013 3.61026 7.30565 3.58242C7.4562 3.56534 7.61928 3.56895 7.77015 3.58008C7.83166 3.58462 7.92524 3.5891 7.97524 3.63383C8.07111 3.71961 7.84234 3.78575 7.78885 3.80211C7.73766 3.81777 7.6863 3.82283 7.63343 3.82898C7.51481 3.8428 7.39782 3.86746 7.27877 3.87806C7.00842 3.90216 6.73639 3.87983 6.46604 3.90377C6.30386 3.91814 6.13911 3.92235 5.97875 3.95168C5.86275 3.9729 5.75843 4.01611 5.65155 4.06387C5.54354 4.11212 5.3933 4.13108 5.3933 4.27479C5.3933 4.36574 5.38515 4.39581 5.50431 4.37704C5.71714 4.34351 5.92913 4.29932 6.14118 4.26077C6.20654 4.24888 6.25776 4.22991 6.3188 4.20643" stroke="black" stroke-linecap="round" stroke-linejoin="round"/>
</svg>
