<svg width="10" height="10" viewBox="0 0 10 10" fill="none" xmlns="http://www.w3.org/2000/svg">
<path d="M8.67593 3.79765L8.62837 3.78069L8.44259 3.33723L8.46274 3.29166C9.02554 2.01524 8.98673 1.97716 8.89338 1.88463L8.14266 1.15227C8.11197 1.12182 8.05808 1.1004 8.01162 1.1004C7.96938 1.1004 7.84144 1.1004 6.73269 1.60257L6.68823 1.62253L6.23078 1.43832L6.21242 1.39278C5.69102 0.10173 5.63761 0.10173 5.50787 0.10173H4.44768C4.31842 0.10173 4.25955 0.10173 3.77606 1.39503L3.75786 1.44211L3.30279 1.62762L3.25928 1.60952C2.50881 1.29313 2.07062 1.13269 1.95639 1.13269C1.91004 1.13269 1.85596 1.15348 1.82513 1.18385L1.07371 1.91832C0.978385 2.01235 0.93885 2.05172 1.53113 3.3015L1.5529 3.34785L1.36682 3.79083L1.32128 3.80844C0 4.31905 0 4.36883 0 4.50183V5.54074C0 5.67408 0 5.72946 1.3239 6.20392L1.37123 6.22063L1.55733 6.66231L1.53735 6.70745C0.974545 7.98446 1.01024 8.01902 1.10605 8.11432L1.85563 8.84768C1.88706 8.87788 1.94144 8.89946 1.98782 8.89946C2.02978 8.89946 2.15742 8.89946 3.26691 8.39753L3.31134 8.37674L3.76908 8.56187L3.78688 8.60765C4.3086 9.89827 4.3622 9.89827 4.49203 9.89827H5.55254C5.68569 9.89827 5.74091 9.89827 6.22478 8.60411L6.24282 8.557L6.69861 8.37274L6.74199 8.39042C7.49184 8.70771 7.92982 8.86782 8.04331 8.86782C8.08926 8.86782 8.14383 8.84768 8.17517 8.81663L8.92781 8.08057C9.02248 7.98606 9.06194 7.94741 8.4686 6.69882L8.44654 6.65193L8.63229 6.21087L8.67664 6.19348C10 5.68019 10 5.63017 10 5.49701V4.45872C10 4.3254 10 4.27035 8.67593 3.79765ZM4.99999 6.68492C4.05248 6.68492 3.28167 5.92885 3.28167 5.00019C3.28167 4.0715 4.05251 3.31643 4.99999 3.31643C5.94708 3.31643 6.71776 4.07167 6.71776 5.00019C6.71779 5.92868 5.94711 6.68492 4.99999 6.68492Z" fill="black"/>
</svg>
