<svg width="11" height="11" viewBox="0 0 11 11" fill="none" xmlns="http://www.w3.org/2000/svg">
<path d="M5.49979 1.80904C3.46522 1.80904 1.81006 3.46434 1.81006 5.49898C1.81006 7.53356 3.4652 9.18888 5.49979 9.18888C7.53446 9.18888 9.18972 7.53358 9.18972 5.49898C9.18969 3.46431 7.53446 1.80904 5.49979 1.80904Z" fill="black"/>
<path d="M5.49994 10.9999C2.46727 10.9999 0 8.53264 0 5.49992C0 2.46729 2.46727 0 5.49994 0C8.53262 0 11 2.46729 11 5.49992C11 8.53264 8.53264 10.9999 5.49994 10.9999ZM5.49994 1.27736C3.17167 1.27736 1.2775 3.17158 1.2775 5.49992C1.2775 7.82819 3.1717 9.72241 5.49994 9.72241C7.82833 9.72241 9.7225 7.82816 9.7225 5.49992C9.7225 3.1716 7.8283 1.27736 5.49994 1.27736Z" fill="black"/>
</svg>
