<svg width="40" height="40" viewBox="0 0 40 40" fill="none" xmlns="http://www.w3.org/2000/svg">
<circle cx="20" cy="20" r="20" fill="5B5B5B"/>
<path d="M25.208 29L21.368 23.6C20.936 23.648 20.488 23.672 20.024 23.672H15.512V29H13.736V12.2H20.024C22.168 12.2 23.848 12.712 25.064 13.736C26.28 14.76 26.888 16.168 26.888 17.96C26.888 19.272 26.552 20.384 25.88 21.296C25.224 22.192 24.28 22.84 23.048 23.24L27.152 29H25.208ZM19.976 22.16C21.64 22.16 22.912 21.792 23.792 21.056C24.672 20.32 25.112 19.288 25.112 17.96C25.112 16.6 24.672 15.56 23.792 14.84C22.912 14.104 21.64 13.736 19.976 13.736H15.512V22.16H19.976Z" fill="white"/>
</svg>
