<svg width="40" height="40" viewBox="0 0 40 40" fill="none" xmlns="http://www.w3.org/2000/svg">
<circle cx="20" cy="20" r="20" fill="#B9B9B9"/>
<path d="M24.32 20.336C25.424 20.576 26.272 21.056 26.864 21.776C27.472 22.48 27.776 23.392 27.776 24.512C27.776 25.952 27.24 27.064 26.168 27.848C25.112 28.616 23.544 29 21.464 29H13.736V12.2H20.984C22.856 12.2 24.304 12.576 25.328 13.328C26.368 14.08 26.888 15.144 26.888 16.52C26.888 17.448 26.656 18.24 26.192 18.896C25.744 19.536 25.12 20.016 24.32 20.336ZM15.512 13.664V19.76H20.864C22.224 19.76 23.272 19.504 24.008 18.992C24.744 18.464 25.112 17.704 25.112 16.712C25.112 15.72 24.744 14.968 24.008 14.456C23.272 13.928 22.224 13.664 20.864 13.664H15.512ZM21.44 27.536C22.944 27.536 24.08 27.28 24.848 26.768C25.616 26.256 26 25.456 26 24.368C26 22.272 24.48 21.224 21.44 21.224H15.512V27.536H21.44Z" fill="white"/>
</svg>
